<svg width="256" height="256" viewBox="0 0 256 256" fill="none" xmlns="http://www.w3.org/2000/svg">
<g clip-path="url(#clip0_49_860)">
<path d="M256 127.988C256 198.68 198.688 256 128.02 256C69.8477 256 20.75 217.188 5.17188 164.047C8.35547 161.648 12.043 159.5 15.4805 157.879C15.6172 157.781 15.7734 157.723 15.9102 157.664C40.1758 146.223 68.2461 151.438 70.9023 151.984L71.2539 152.062L71.1758 152.297L55.6562 196.047C54.2695 199.988 57.1953 204.129 61.3555 204.129H83.5117C85.6992 204.129 87.6875 202.918 88.7422 201.062C88.957 200.711 89.1133 200.34 89.25 199.949L97.6641 174.18L102.523 159.363L102.562 159.246C104.398 159.773 106.215 160.281 108.031 160.789C110.391 161.453 112.734 162.137 115.078 162.801C117.457 163.484 119.801 164.125 122.164 164.77C124.523 165.453 126.887 166.078 129.289 166.703C131.668 167.328 134.051 167.934 136.473 168.5C138.758 169.047 141.059 169.535 143.383 170.004C143.5 170.023 143.637 170.063 143.754 170.082C144.574 170.258 145.375 170.414 146.195 170.57C147.852 170.902 149.531 171.195 151.27 171.488C153.047 171.781 155.68 171.973 157.535 172.207C157.828 172.891 161.695 184.684 161.695 184.684L163.195 189.371L166.672 200.027C167.453 202.371 169.695 204.09 172.371 204.109H194.254C198.434 204.109 201.34 199.988 199.953 196.047L197.691 189.641C197.691 189.641 197.574 189.523 197.613 189.43L191.719 172.637C192.613 172.52 193.766 172.383 194.684 172.207C197.867 171.664 201.047 170.922 204.27 169.965C207.453 169.027 210.711 167.816 213.934 166.371C215.59 165.609 217.094 164.184 218.129 162.449C219.125 160.711 219.613 158.738 219.34 156.922C219.027 154.695 218.617 152.824 218.227 151.047C217.836 149.309 217.465 147.648 217.094 145.871C216.723 144.137 216.332 142.242 215.98 140.035C215.707 138.199 214.887 136.973 213.758 136.406C212.625 135.82 211.16 135.918 209.539 136.695C206.418 138.18 203.332 139.41 200.324 140.445C197.301 141.441 194.352 142.262 191.445 142.906C188.555 143.551 185.684 144 182.875 144.352C182.543 144.391 182.191 144.449 181.84 144.488H181.762C179.34 144.723 176.957 144.879 174.598 144.957C171.902 145.035 169.23 144.996 166.594 144.898C163.957 144.762 161.363 144.566 158.805 144.293C156.227 144 153.711 143.648 151.191 143.258C150.195 143.102 149.199 142.926 148.184 142.73C148.145 142.73 148.086 142.711 148.047 142.711C146.605 142.457 145.18 142.184 143.754 141.91C141.313 141.402 138.875 140.855 136.473 140.289C134.051 139.742 131.668 139.137 129.289 138.512C126.887 137.887 124.523 137.242 122.164 136.578C119.801 135.957 117.457 135.293 115.078 134.609C113.711 134.219 112.344 133.828 110.957 133.438L113.516 125.531H113.477L122.711 96.9297C124.426 91.582 126.594 84.5703 127.57 78.5195H128.293C128.605 80.043 128.957 81.625 129.348 83.207C129.348 83.207 129.348 83.2266 129.348 83.2461C130.363 87.5977 131.633 92.0703 132.82 95.6992C132.82 95.7383 132.84 95.7773 132.859 95.8164C132.977 96.1484 133.074 96.4805 133.191 96.793L144.828 132.441C150.234 134.707 161.832 137.984 178.285 134.746L147.832 48.4375C146.973 46.0156 144.691 44.3945 142.133 44.3945H113.672C111.113 44.3945 108.832 46.0156 107.973 48.4375L80.6406 125.531H80.3281C79.9766 125.453 79.6445 125.375 79.3125 125.316C76.875 124.828 74.3945 124.359 71.8359 123.93C69.2812 123.539 66.6445 123.188 63.9727 122.914C61.2969 122.621 58.543 122.387 55.7539 122.27C54.6797 122.211 53.6055 122.172 52.5312 122.152C51.6328 122.113 50.7344 122.074 49.8164 122.113C24.6172 121.801 8.66797 129.941 0.273438 136.074C0.078125 133.398 0 130.703 0 127.988C0.0195312 57.2969 57.332 0 128.02 0C198.707 0 256 57.2969 256 127.988Z" fill="#1C99AB"/>
</g>
<defs>
<clipPath id="clip0_49_860">
<rect width="256" height="256" fill="white"/>
</clipPath>
</defs>
</svg>
